HIERARCHY
ROOT Hips
{
	OFFSET 0.000000 83.214638 0.000000
	CHANNELS 6 Xposition Yposition Zposition Xrotation Yrotation Zrotation
	JOINT Pelvis
	{
		OFFSET 0.000000 0.000000 0.000000
		CHANNELS 3 Xrotation Yrotation Zrotation
		JOINT LeftUpLeg
		{
			OFFSET 8.479700 -4.795502 -0.379100
			CHANNELS 3 Xrotation Yrotation Zrotation
			JOINT LeftLeg
			{
				OFFSET 0.024144 -32.555107 0.112900
				CHANNELS 3 Xrotation Yrotation Zrotation
				JOINT LeftFoot
				{
					OFFSET -0.024144 -32.638630 -3.012600
					CHANNELS 3 Xrotation Yrotation Zrotation
					JOINT LeftToeBase
					{
						OFFSET 0.970200 -13.225400 11.864200
						CHANNELS 3 Xrotation Yrotation Zrotation
						End Site
						{
							OFFSET 0.000000 12.319262 0.000000
						}
					}
					JOINT LFootTongue
					{
						OFFSET 1.142400 -1.059800 6.665200
						CHANNELS 3 Xrotation Yrotation Zrotation
						End Site
						{
							OFFSET 0.000000 12.319262 0.000000
						}
					}
				}
				JOINT LeftPantLeg
				{
					OFFSET 0.918482 -16.533964 -2.284700
					CHANNELS 3 Xrotation Yrotation Zrotation
					End Site
					{
						OFFSET 0.350399 24.744368 0.000000
					}
				}
			}
		}
		JOINT RightUpLeg
		{
			OFFSET -8.479700 -4.795502 -0.379100
			CHANNELS 3 Xrotation Yrotation Zrotation
			JOINT RightLeg
			{
				OFFSET -0.023144 -32.555092 0.112900
				CHANNELS 3 Xrotation Yrotation Zrotation
				JOINT RightFoot
				{
					OFFSET 0.023144 -32.638641 -3.012700
					CHANNELS 3 Xrotation Yrotation Zrotation
					JOINT RightToeBase
					{
						OFFSET -0.970200 -13.225400 11.864200
						CHANNELS 3 Xrotation Yrotation Zrotation
						End Site
						{
							OFFSET 0.000000 12.319244 0.000000
						}
					}
					JOINT RFootTongue
					{
						OFFSET -1.142200 -1.059800 6.665200
						CHANNELS 3 Xrotation Yrotation Zrotation
						End Site
						{
							OFFSET 0.000000 12.319243 0.000000
						}
					}
				}
				JOINT RightPantLeg
				{
					OFFSET -0.919482 -16.533978 -2.284800
					CHANNELS 3 Xrotation Yrotation Zrotation
					End Site
					{
						OFFSET -0.350400 24.744419 0.000000
					}
				}
			}
		}
	}
	JOINT Spine
	{
		OFFSET 0.000000 7.722000 1.166200
		CHANNELS 3 Xrotation Yrotation Zrotation
		JOINT Spine1
		{
			OFFSET 0.000000 12.024101 0.248800
			CHANNELS 3 Xrotation Yrotation Zrotation
			JOINT Spine2
			{
				OFFSET 0.000000 11.502998 -0.491200
				CHANNELS 3 Xrotation Yrotation Zrotation
				JOINT Neck
				{
					OFFSET 0.000000 18.430702 -3.123100
					CHANNELS 3 Xrotation Yrotation Zrotation
					JOINT Head
					{
						OFFSET 0.000000 9.051102 1.034000
						CHANNELS 3 Xrotation Yrotation Zrotation
						JOINT HairB
						{
							OFFSET 0.208400 24.786102 24.822300
							CHANNELS 3 Xrotation Yrotation Zrotation
							End Site
							{
								OFFSET 0.000000 32.263779 0.000000
							}
						}
						JOINT HairA
						{
							OFFSET -7.081100 24.428299 23.196600
							CHANNELS 3 Xrotation Yrotation Zrotation
							End Site
							{
								OFFSET 0.000000 32.263779 0.000000
							}
						}
						JOINT Hat
						{
							OFFSET 16.728800 15.048294 -15.439601
							CHANNELS 3 Xrotation Yrotation Zrotation
							End Site
							{
								OFFSET 0.000000 32.263779 0.000000
							}
						}
					}
				}
				JOINT LeftShoulder
				{
					OFFSET 6.197800 13.665199 -4.064700
					CHANNELS 3 Xrotation Yrotation Zrotation
					JOINT LeftArm
					{
						OFFSET 7.778100 -0.187103 -1.709300
						CHANNELS 3 Xrotation Yrotation Zrotation
						JOINT LeftForeArm
						{
							OFFSET 22.049376 0.000000 0.000000
							CHANNELS 3 Xrotation Yrotation Zrotation
							JOINT LeftHand
							{
								OFFSET 23.009392 0.000000 0.000000
								CHANNELS 3 Xrotation Yrotation Zrotation
								JOINT LeftHandThumb1
								{
									OFFSET 3.507191 -2.063065 3.133727
									CHANNELS 3 Xrotation Yrotation Zrotation
									JOINT LeftHandThumb2
									{
										OFFSET 3.101337 -1.790558 1.790558
										CHANNELS 3 Xrotation Yrotation Zrotation
										JOINT LeftHandThumb3
										{
											OFFSET 3.058640 -1.765907 1.765906
											CHANNELS 3 Xrotation Yrotation Zrotation
											End Site
											{
												OFFSET -0.415260 3.926476 -0.049563
											}
										}
									}
								}
								JOINT LeftHandIndex1
								{
									OFFSET 11.334419 -0.901459 3.706815
									CHANNELS 3 Xrotation Yrotation Zrotation
									JOINT LeftHandIndex2
									{
										OFFSET 3.283112 0.000000 0.000000
										CHANNELS 3 Xrotation Yrotation Zrotation
										JOINT LeftHandIndex3
										{
											OFFSET 3.323853 0.000000 0.000000
											CHANNELS 3 Xrotation Yrotation Zrotation
											End Site
											{
												OFFSET -1.135597 3.097809 0.402452
											}
										}
									}
								}
								JOINT LeftHandMiddle1
								{
									OFFSET 11.335861 0.000000 0.000000
									CHANNELS 3 Xrotation Yrotation Zrotation
									JOINT LeftHandMiddle2
									{
										OFFSET 3.410492 0.000000 0.000000
										CHANNELS 3 Xrotation Yrotation Zrotation
										JOINT LeftHandMiddle3
										{
											OFFSET 3.312172 0.000000 0.000000
											CHANNELS 3 Xrotation Yrotation Zrotation
											End Site
											{
												OFFSET -1.150200 3.080154 0.400270
											}
										}
									}
								}
								JOINT LeftHandRing1
								{
									OFFSET 11.514786 -0.013176 -3.003090
									CHANNELS 3 Xrotation Yrotation Zrotation
									JOINT LeftHandRing2
									{
										OFFSET 3.053307 0.000000 0.000000
										CHANNELS 3 Xrotation Yrotation Zrotation
										JOINT LeftHandRing3
										{
											OFFSET 3.295807 0.000000 0.000000
											CHANNELS 3 Xrotation Yrotation Zrotation
											End Site
											{
												OFFSET -1.281006 3.013344 0.375733
											}
										}
									}
								}
								JOINT LeftHandPinky1
								{
									OFFSET 10.518692 -0.960396 -5.730441
									CHANNELS 3 Xrotation Yrotation Zrotation
									JOINT LeftHandPinky2
									{
										OFFSET 2.861649 0.000000 0.000000
										CHANNELS 3 Xrotation Yrotation Zrotation
										JOINT LeftHandPinky3
										{
											OFFSET 2.863380 0.000000 0.000000
											CHANNELS 3 Xrotation Yrotation Zrotation
											End Site
											{
												OFFSET -0.843597 2.711159 0.369971
											}
										}
									}
								}
							}
							JOINT LSleeve
							{
								OFFSET 6.676277 -0.344902 -1.011730
								CHANNELS 3 Xrotation Yrotation Zrotation
								End Site
								{
									OFFSET 0.000000 14.885353 0.000000
								}
							}
						}
					}
				}
				JOINT RightShoulder
				{
					OFFSET -6.197800 13.665199 -4.064700
					CHANNELS 3 Xrotation Yrotation Zrotation
					JOINT RightArm
					{
						OFFSET -7.778100 -0.187103 -1.709300
						CHANNELS 3 Xrotation Yrotation Zrotation
						JOINT RightForeArm
						{
							OFFSET -22.049376 0.000000 0.000000
							CHANNELS 3 Xrotation Yrotation Zrotation
							JOINT RightHand
							{
								OFFSET -23.009392 0.000000 0.000000
								CHANNELS 3 Xrotation Yrotation Zrotation
								JOINT RightHandThumb1
								{
									OFFSET -3.507191 -2.063065 3.133727
									CHANNELS 3 Xrotation Yrotation Zrotation
									JOINT RightHandThumb2
									{
										OFFSET -3.101337 -1.790558 1.790558
										CHANNELS 3 Xrotation Yrotation Zrotation
										JOINT RightHandThumb3
										{
											OFFSET -3.058640 -1.765907 1.765906
											CHANNELS 3 Xrotation Yrotation Zrotation
											End Site
											{
												OFFSET 0.415260 3.926476 -0.049563
											}
										}
									}
								}
								JOINT RightHandIndex1
								{
									OFFSET -11.334419 -0.901459 3.706815
									CHANNELS 3 Xrotation Yrotation Zrotation
									JOINT RightHandIndex2
									{
										OFFSET -3.283112 0.000000 0.000000
										CHANNELS 3 Xrotation Yrotation Zrotation
										JOINT RightHandIndex3
										{
											OFFSET -3.323853 0.000000 0.000000
											CHANNELS 3 Xrotation Yrotation Zrotation
											End Site
											{
												OFFSET 1.135597 3.097809 0.402452
											}
										}
									}
								}
								JOINT RightHandMiddle1
								{
									OFFSET -11.335861 0.000000 0.000000
									CHANNELS 3 Xrotation Yrotation Zrotation
									JOINT RightHandMiddle2
									{
										OFFSET -3.410492 0.000000 0.000000
										CHANNELS 3 Xrotation Yrotation Zrotation
										JOINT RightHandMiddle3
										{
											OFFSET -3.312172 0.000000 0.000000
											CHANNELS 3 Xrotation Yrotation Zrotation
											End Site
											{
												OFFSET 1.150200 3.080154 0.400270
											}
										}
									}
								}
								JOINT RightHandRing1
								{
									OFFSET -11.514786 -0.013176 -3.003090
									CHANNELS 3 Xrotation Yrotation Zrotation
									JOINT RightHandRing2
									{
										OFFSET -3.053307 0.000000 0.000000
										CHANNELS 3 Xrotation Yrotation Zrotation
										JOINT RightHandRing3
										{
											OFFSET -3.295807 0.000000 0.000000
											CHANNELS 3 Xrotation Yrotation Zrotation
											End Site
											{
												OFFSET 1.281006 3.013344 0.375733
											}
										}
									}
								}
								JOINT RightHandPinky1
								{
									OFFSET -10.518692 -0.960396 -5.730441
									CHANNELS 3 Xrotation Yrotation Zrotation
									JOINT RightHandPinky2
									{
										OFFSET -2.861649 0.000000 0.000000
										CHANNELS 3 Xrotation Yrotation Zrotation
										JOINT RightHandPinky3
										{
											OFFSET -2.863380 0.000000 0.000000
											CHANNELS 3 Xrotation Yrotation Zrotation
											End Site
											{
												OFFSET 0.843597 2.711159 0.369971
											}
										}
									}
								}
							}
							JOINT RSleeve
							{
								OFFSET -6.676277 -0.344902 -1.011730
								CHANNELS 3 Xrotation Yrotation Zrotation
								End Site
								{
									OFFSET 0.000000 14.885353 0.000000
								}
							}
						}
					}
				}
				JOINT Backpack
				{
					OFFSET 0.000000 -2.471497 36.677502
					CHANNELS 3 Xrotation Yrotation Zrotation
					End Site
					{
						OFFSET 0.000000 20.427315 0.000000
					}
				}
				JOINT Hood
				{
					OFFSET 0.000000 18.754097 -10.431000
					CHANNELS 3 Xrotation Yrotation Zrotation
					JOINT Hood1
					{
						OFFSET 0.000000 -5.011002 -7.685901
						CHANNELS 3 Xrotation Yrotation Zrotation
						End Site
						{
							OFFSET 0.000000 9.175140 0.000000
						}
					}
				}
				JOINT LHoodieString
				{
					OFFSET 5.250500 16.397697 3.089900
					CHANNELS 3 Xrotation Yrotation Zrotation
					JOINT LHoodieString1
					{
						OFFSET 0.257700 -6.364304 3.694600
						CHANNELS 3 Xrotation Yrotation Zrotation
						JOINT LHoodieString2
						{
							OFFSET 0.000000 -9.643799 2.679100
							CHANNELS 3 Xrotation Yrotation Zrotation
							End Site
							{
								OFFSET 0.000000 10.009018 0.000000
							}
						}
					}
				}
				JOINT RHoodieString
				{
					OFFSET -5.250500 16.397697 3.089900
					CHANNELS 3 Xrotation Yrotation Zrotation
					JOINT RHoodieString1
					{
						OFFSET -0.257700 -6.364304 3.694600
						CHANNELS 3 Xrotation Yrotation Zrotation
						JOINT RHoodieString2
						{
							OFFSET 0.000000 -9.643799 2.679100
							CHANNELS 3 Xrotation Yrotation Zrotation
							End Site
							{
								OFFSET 0.000000 10.009018 0.000000
							}
						}
					}
				}
			}
			JOINT LBackpack_Strap
			{
				OFFSET 15.223200 -7.719803 -6.610900
				CHANNELS 3 Xrotation Yrotation Zrotation
				End Site
				{
					OFFSET 0.000000 16.040596 0.000000
				}
			}
			JOINT RBackpack_Strap
			{
				OFFSET -15.223000 -7.719803 -6.610900
				CHANNELS 3 Xrotation Yrotation Zrotation
				End Site
				{
					OFFSET 0.000000 16.040596 0.000000
				}
			}
		}
	}
	JOINT BoyFacialAnim_Joint
	{
		OFFSET 1.000000 -82.208099 -1.550900
		CHANNELS 3 Xrotation Yrotation Zrotation
		End Site
		{
			OFFSET 0.000000 30.012791 0.000000
		}
	}
}
MOTION
Frames: 5
Frame Time: 0.033333
-0.057231 79.769379 -0.189111 -16.908466 -39.000800 -9.307349 -0.000000 -0.000001 -0.000000 -21.117651 43.319228 28.070891 22.966349 0.472309 -0.651340 2.431105 1.285700 -3.099504 -0.000000 -0.000001 -0.000000 -0.000000 -0.000001 -0.000000 -0.000000 0.000001 -0.000000 4.139411 5.176448 -5.745621 30.950493 -0.327334 1.077466 -20.535807 -17.435975 4.319828 -0.000000 -0.000002 0.000000 -0.000000 -0.000002 0.000000 0.000000 0.000000 -0.000000 7.991478 -0.045879 -0.230413 16.413457 -0.125526 -0.745992 16.413513 -0.192909 -0.721094 0.367409 7.480958 0.837551 -6.982131 21.597272 11.882997 -0.000000 -0.000001 0.000000 -0.000000 -0.000001 0.000000 -0.000000 -0.000001 0.000000 -37.571074 -4.822506 1.545809 -41.628432 -7.015819 -61.684408 -0.000026 -64.995875 -0.000030 -119.359632 1.120078 32.550223 4.709217 9.560376 3.111993 19.473189 -1.474933 7.636931 -0.000001 -0.000001 0.000001 -0.212815 3.933729 -36.747131 2.942144 5.078912 -60.144597 -0.000003 0.000000 -0.000000 0.405920 5.507062 -52.453162 3.387146 5.308620 -65.057456 0.000000 0.000000 -0.000001 -0.074374 5.736806 -61.061420 4.055043 5.569519 -72.094901 -0.000000 -0.000001 -0.000001 -6.565564 4.545150 -72.425215 3.299624 5.267228 -64.107841 -0.000001 -0.000001 -0.000002 -0.000001 -0.000006 -0.000002 -41.176287 -8.605652 -9.942309 -46.819700 58.242942 100.948707 0.000322 98.442956 -0.000344 -52.463127 -17.216624 -29.273101 8.377147 -4.904147 11.021994 21.620192 -18.183893 -18.379204 -0.000000 -0.000001 0.000001 -0.920031 1.683579 12.434981 0.748116 -2.533475 32.898279 -0.000001 0.000000 0.000003 3.413053 -7.186279 51.650246 6.296829 -4.359579 110.634673 0.000001 0.000000 0.000003 -3.349037 -2.600432 57.010564 5.440857 -4.590889 99.698140 -0.000001 -0.000000 -0.000005 -3.996445 -3.303934 64.593843 4.058858 -4.618674 82.610503 0.000001 -0.000000 0.000004 -0.000001 0.000001 -0.000002 0.000001 -0.000001 0.000001 0.000001 -0.000001 0.000001 0.000001 -0.000001 0.000001 0.000001 -0.000001 0.000001 0.000001 -0.000001 0.000001 -0.000001 0.000001 0.000001 0.000001 -0.000001 0.000001 0.000001 -0.000001 0.000001 -0.000001 0.000001 0.000001 0.000001 -0.000001 0.000001 0.000001 -0.000001 0.000001 -0.000000 -0.000001 -0.000000 
-0.038292 79.773903 -0.178910 -16.730343 -39.061790 -9.173634 -0.000000 -0.000001 -0.000001 -21.213987 43.351511 28.009603 22.940285 0.488652 -0.661513 2.433333 1.301721 -3.079037 -0.000000 -0.000000 -0.000000 -0.000000 -0.000000 -0.000000 -0.000000 0.000000 0.000000 3.979772 5.259164 -5.789095 30.953225 -0.317899 1.037646 -20.459646 -17.536605 4.558715 0.000000 0.000002 -0.000000 0.000000 0.000002 -0.000000 -0.000000 -0.000005 0.000003 8.179625 0.159465 -0.222796 16.038748 -0.123480 -0.930382 16.284793 -0.306599 -0.762331 0.372745 7.463017 0.882420 -6.979182 21.591813 11.897086 -0.000000 0.000001 -0.000002 -0.000000 0.000001 -0.000002 -0.000000 0.000001 -0.000002 -37.570999 -4.844599 1.558387 -42.015280 -7.149663 -61.790966 0.000082 -64.602231 0.000066 -119.064377 1.489222 32.931231 4.624333 9.322270 3.103915 19.473194 -1.474935 7.636930 0.000001 -0.000000 -0.000000 -0.254118 3.884045 -36.827489 2.942274 5.078981 -60.146093 -0.000001 0.000001 -0.000002 0.405919 5.507057 -52.453162 3.387143 5.308622 -65.057456 0.000001 -0.000001 -0.000000 -0.074375 5.736800 -61.061413 4.064599 5.572593 -72.193453 -0.000003 -0.000001 0.000003 -6.324698 4.579495 -72.214053 3.328000 5.280847 -64.416511 0.000000 -0.000001 -0.000004 0.000000 -0.000001 -0.000004 -41.164269 -8.632673 -9.903748 -46.929458 57.850855 101.413023 0.001130 98.442000 -0.001140 -52.528465 -17.416977 -29.487330 8.377148 -4.904148 11.021992 21.620189 -18.183890 -18.379202 0.000001 -0.000000 -0.000001 -0.924960 1.676408 12.506677 0.763370 -2.556899 33.242135 -0.000000 -0.000001 0.000002 3.413052 -7.186279 51.650242 6.296830 -4.359580 110.634667 0.000002 0.000001 -0.000000 -3.349035 -2.600433 57.010561 5.440859 -4.590889 99.698140 0.000000 0.000001 0.000002 -3.996444 -3.303933 64.593837 4.058859 -4.618674 82.610503 -0.000001 -0.000001 0.000002 -0.000002 0.000001 -0.000002 0.000001 -0.000004 0.000002 0.000001 -0.000004 0.000002 0.000001 -0.000004 0.000002 0.000001 -0.000004 0.000002 0.000001 -0.000004 0.000001 -0.000001 -0.000002 0.000001 0.000001 -0.000004 0.000002 0.000001 -0.000004 0.000001 -0.000001 -0.000002 0.000001 -0.000000 0.000004 -0.000001 -0.000000 0.000004 -0.000001 -0.000000 -0.000001 -0.000001 
-0.026917 79.815178 -0.154705 -16.615475 -39.114851 -9.169157 0.000001 0.000001 0.000000 -21.214634 43.385348 27.973851 22.752374 0.553624 -0.634517 2.502718 1.281395 -3.095065 -0.000000 0.000001 -0.000000 -0.000000 0.000001 0.000000 -0.000000 0.000001 -0.000000 3.865742 5.304524 -5.837580 30.868121 -0.202204 1.021020 -19.957121 -17.702170 5.221099 0.000000 0.000001 0.000000 0.000000 0.000001 0.000000 -0.000000 0.000003 0.000001 8.484209 0.377667 -0.097589 15.657090 -0.125725 -1.136770 16.149209 -0.425687 -0.825532 0.386866 7.435854 0.939879 -6.912604 21.562559 11.891344 -0.000000 0.000001 -0.000001 -0.000000 0.000001 -0.000001 -0.000000 0.000001 -0.000001 -37.570613 -4.863790 1.577161 -42.413658 -7.393477 -62.026901 0.000127 -63.906221 0.000124 -118.913634 1.925773 33.171606 4.539566 9.084083 3.095668 19.473195 -1.474931 7.636928 0.000001 0.000004 0.000001 -0.295580 3.834466 -36.907894 2.942402 5.079061 -60.147554 -0.000001 -0.000003 -0.000000 0.405920 5.507059 -52.453165 3.387150 5.308617 -65.057456 0.000004 0.000001 0.000002 -0.074375 5.736803 -61.061420 4.074174 5.575621 -72.292027 -0.000000 -0.000001 -0.000001 -6.084254 4.615592 -72.002768 3.356455 5.294307 -64.725195 -0.000001 0.000000 -0.000002 -0.000002 -0.000003 -0.000003 -41.152685 -8.665775 -9.872510 -46.992381 57.444350 101.832370 0.001052 98.465127 -0.001021 -52.658088 -17.806056 -29.895704 8.377147 -4.904147 11.021995 21.620194 -18.183891 -18.379204 0.000002 -0.000001 -0.000001 -0.929899 1.669245 12.578400 0.778786 -2.580239 33.586021 -0.000001 0.000000 0.000005 3.413053 -7.186279 51.650249 6.296829 -4.359580 110.634667 0.000001 0.000001 -0.000000 -3.349034 -2.600432 57.010564 5.440859 -4.590889 99.698147 -0.000000 0.000000 0.000000 -3.996445 -3.303933 64.593843 4.058859 -4.618676 82.610503 -0.000001 -0.000001 0.000004 0.000000 -0.000000 0.000001 -0.000001 0.000000 -0.000001 -0.000001 0.000000 -0.000001 -0.000001 0.000000 -0.000001 -0.000001 0.000000 -0.000001 -0.000001 0.000000 -0.000001 -0.000001 -0.000004 0.000003 -0.000001 0.000000 -0.000001 -0.000001 0.000000 -0.000001 -0.000001 -0.000004 0.000003 -0.000000 0.000002 -0.000000 -0.000000 0.000002 -0.000000 0.000001 0.000001 0.000000 
0.006740 79.894287 -0.106948 -16.507382 -39.154275 -9.235014 -0.000001 -0.000003 -0.000001 -21.146530 43.450276 27.914997 22.406087 0.693572 -0.577505 2.625617 1.176821 -3.108231 -0.000000 0.000001 -0.000000 -0.000000 0.000001 -0.000000 -0.000000 0.000001 0.000001 3.665455 5.314721 -5.961063 30.829056 0.011166 1.052237 -18.932716 -17.827446 6.373373 0.000000 -0.000001 0.000000 0.000000 -0.000001 0.000000 -0.000000 -0.000001 0.000002 8.901669 0.573096 0.150231 15.257524 -0.134819 -1.355013 15.995531 -0.552706 -0.900777 0.411519 7.403618 1.004307 -6.775747 21.521665 11.860724 -0.000000 0.000001 0.000001 -0.000000 0.000001 0.000001 -0.000000 0.000001 0.000001 -37.569483 -4.870705 1.614448 -42.798502 -7.753644 -62.427096 -0.000008 -62.864965 -0.000013 -118.952034 2.418712 33.223300 4.454928 8.845831 3.087301 19.473195 -1.474936 7.636931 -0.000002 0.000005 -0.000000 -0.337179 3.785003 -36.988323 2.942532 5.079152 -60.149023 0.000001 -0.000001 -0.000002 0.405919 5.507055 -52.453165 3.387147 5.308619 -65.057456 0.000007 0.000001 -0.000001 -0.074374 5.736801 -61.061413 4.083736 5.578661 -72.390559 -0.000003 -0.000002 0.000001 -5.844233 4.653466 -71.791463 3.384971 5.307641 -65.033872 -0.000002 0.000001 -0.000004 -0.000000 0.000004 0.000001 -41.143420 -8.704391 -9.857425 -46.996858 57.037301 102.184111 0.000828 98.515015 -0.000813 -52.869329 -18.418000 -30.525222 8.377145 -4.904147 11.021993 21.620192 -18.183891 -18.379202 0.000002 0.000000 -0.000002 -0.934829 1.662062 12.650125 0.794337 -2.603475 33.929887 0.000000 0.000001 0.000000 3.413053 -7.186279 51.650246 6.296828 -4.359578 110.634673 0.000001 0.000001 -0.000005 -3.349034 -2.600432 57.010564 5.440858 -4.590886 99.698147 0.000001 0.000000 0.000004 -3.996444 -3.303933 64.593843 4.058859 -4.618677 82.610510 -0.000000 0.000000 0.000002 0.000002 -0.000001 -0.000003 -0.000001 -0.000001 0.000001 -0.000001 -0.000001 0.000001 -0.000001 -0.000001 0.000001 -0.000001 -0.000001 0.000001 -0.000001 -0.000001 0.000000 -0.000003 0.000002 -0.000002 -0.000001 -0.000001 0.000001 -0.000001 -0.000001 0.000000 -0.000003 0.000002 -0.000002 0.000000 -0.000002 0.000001 0.000000 -0.000002 0.000001 -0.000001 -0.000003 -0.000001 
0.093268 79.999771 -0.025821 -16.341308 -39.141424 -9.262131 -0.000000 0.000001 -0.000000 -21.005552 43.531756 27.686208 21.949363 0.783845 -0.459722 2.768021 1.121183 -3.098555 0.000000 -0.000001 -0.000000 0.000000 -0.000001 -0.000000 0.000000 0.000000 0.000000 3.296735 5.412933 -6.183681 30.957460 0.195263 1.118660 -17.448919 -17.864609 7.945140 -0.000000 0.000001 -0.000000 -0.000000 0.000001 -0.000000 0.000001 0.000001 0.000000 9.406733 0.679092 0.445371 14.832357 -0.153031 -1.558347 15.815595 -0.689345 -0.961524 0.424884 7.365656 1.080710 -6.683823 21.469108 11.843659 0.000000 -0.000001 -0.000002 0.000000 -0.000001 -0.000002 0.000000 -0.000001 -0.000002 -37.568028 -4.872082 1.666610 -43.153624 -8.181947 -62.927018 -0.000087 -61.584735 -0.000086 -119.184233 2.914509 33.094838 4.370434 8.607484 3.078830 19.473192 -1.474935 7.636934 -0.000001 0.000002 0.000000 -0.378922 3.735673 -37.068762 2.942664 5.079216 -60.150471 0.000000 0.000000 -0.000002 0.405920 5.507058 -52.453162 3.387147 5.308615 -65.057449 0.000004 -0.000000 0.000000 -0.074374 5.736801 -61.061420 4.093331 5.581687 -72.489112 -0.000003 -0.000002 0.000001 -5.604669 4.693100 -71.580116 3.413555 5.320795 -65.342589 -0.000000 0.000003 0.000004 -0.000000 -0.000002 0.000002 -41.144083 -8.730261 -9.881005 -46.994799 56.638685 102.473239 0.000286 98.568475 -0.000327 -53.150309 -19.195856 -31.303129 8.377147 -4.904148 11.021995 21.620190 -18.183895 -18.379206 0.000001 0.000000 -0.000001 -0.939767 1.654883 12.721833 0.810042 -2.626629 34.273807 0.000001 0.000000 0.000005 3.413052 -7.186280 51.650249 6.296829 -4.359578 110.634673 0.000001 0.000001 -0.000004 -3.349035 -2.600433 57.010561 5.440859 -4.590889 99.698147 0.000000 -0.000001 0.000005 -3.996447 -3.303936 64.593843 4.058857 -4.618676 82.610503 -0.000002 -0.000001 -0.000002 0.000001 -0.000000 -0.000002 0.000002 0.000004 -0.000002 0.000002 0.000004 -0.000002 0.000002 0.000004 -0.000002 0.000002 0.000004 -0.000002 0.000002 0.000004 -0.000001 -0.000000 0.000001 0.000001 0.000002 0.000004 -0.000002 0.000002 0.000004 -0.000001 -0.000000 0.000001 0.000001 0.000000 0.000001 0.000000 0.000000 0.000001 0.000000 -0.000000 0.000001 -0.000000 
